custom-analysis
version=1
nRows=4
nColumns=98
inDegrees=no

This file contains tibia displacement and acting force.

Units are S.I. units (seconds, meters, Newtons, ...)
Angles are in degrees.

endheader
time	APT	SIT	knee_angle	aACL_R_force	pACL_R_force	aPCL_R_force	pPCL_R_force	aMCL_R_force	mMCL_R_force	pMCL_R_force	aLCL_R_force	mLCL_R_force	pLCL_R_force	aPCL_L_force	pPCL_L_force	aMCL_L_force	aLCL_L_force	aACL_R_length	pACL_R_length	aPCL_R_length	pPCL_R_length	aMCL_R_length	mMCL_R_length	pMCL_R_length	aLCL_R_length	mLCL_R_length	pLCL_R_length	aPCL_L_length	pPCL_L_length	aMCL_L_length	aLCL_L_length	aACL_R_strain	pACL_R_strain	aPCL_R_strain	pPCL_R_strain	aMCL_R_strain	mMCL_R_strain	pMCL_R_strain	aLCL_R_strain	mLCL_R_strain	pLCL_R_strain	aPCL_L_strain	pPCL_L_strain	aMCL_L_strain	aLCL_L_strain	femur_lat_meniscii_r.femur_lat_r.force.X	femur_lat_meniscii_r.femur_lat_r.force.Y	femur_lat_meniscii_r.femur_lat_r.force.Z	femur_lat_meniscii_r.femur_lat_r.torque.X	femur_lat_meniscii_r.femur_lat_r.torque.Y	femur_lat_meniscii_r.femur_lat_r.torque.Z	femur_lat_meniscii_r.meniscus_lat_r.force.X	femur_lat_meniscii_r.meniscus_lat_r.force.Y	femur_lat_meniscii_r.meniscus_lat_r.force.Z	femur_lat_meniscii_r.meniscus_lat_r.torque.X	femur_lat_meniscii_r.meniscus_lat_r.torque.Y	femur_lat_meniscii_r.meniscus_lat_r.torque.Z	femur_med_meniscii_r.femur_med_r.force.X	femur_med_meniscii_r.femur_med_r.force.Y	femur_med_meniscii_r.femur_med_r.force.Z	femur_med_meniscii_r.femur_med_r.torque.X	femur_med_meniscii_r.femur_med_r.torque.Y	femur_med_meniscii_r.femur_med_r.torque.Z	femur_med_meniscii_r.meniscus_med_r.force.X	femur_med_meniscii_r.meniscus_med_r.force.Y	femur_med_meniscii_r.meniscus_med_r.force.Z	femur_med_meniscii_r.meniscus_med_r.torque.X	femur_med_meniscii_r.meniscus_med_r.torque.Y	femur_med_meniscii_r.meniscus_med_r.torque.Z	femur_med_tibia_r.tibia_upper_r.force.X	femur_med_tibia_r.tibia_upper_r.force.Y	femur_med_tibia_r.tibia_upper_r.force.Z	femur_med_tibia_r.tibia_upper_r.torque.X	femur_med_tibia_r.tibia_upper_r.torque.Y	femur_med_tibia_r.tibia_upper_r.torque.Z	femur_med_tibia_r.femur_med_r.force.X	femur_med_tibia_r.femur_med_r.force.Y	femur_med_tibia_r.femur_med_r.force.Z	femur_med_tibia_r.femur_med_r.torque.X	femur_med_tibia_r.femur_med_r.torque.Y	femur_med_tibia_r.femur_med_r.torque.Z	femur_lat_tibia_r.tibia_upper_r.force.X	femur_lat_tibia_r.tibia_upper_r.force.Y	femur_lat_tibia_r.tibia_upper_r.force.Z	femur_lat_tibia_r.tibia_upper_r.torque.X	femur_lat_tibia_r.tibia_upper_r.torque.Y	femur_lat_tibia_r.tibia_upper_r.torque.Z	femur_lat_tibia_r.femur_lat_r.force.X	femur_lat_tibia_r.femur_lat_r.force.Y	femur_lat_tibia_r.femur_lat_r.force.Z	femur_lat_tibia_r.femur_lat_r.torque.X	femur_lat_tibia_r.femur_lat_r.torque.Y	femur_lat_tibia_r.femur_lat_r.torque.Z	femur_lat_meniscii_force_r	femur_med_meniscii_force_r	femur_lat_tibia_force_r	femur_med_tibia_force_r
      0.16588428	      0.01293053	      0.01753932	     57.62283777	     -3.35930416	      0.00000000	    592.61912635	    382.77564504	      0.00000000	      0.00000000	      0.00000000	      0.00000000	      0.00000000	      0.00000000	      0.00000000	      0.00000000	      0.00000001	      0.00000000	      0.03119830	      0.02392425	      0.03503232	      0.03248052	      0.05960387	      0.05922033	      0.05627977	      0.05249660	      0.04773658	      0.04284002	      0.01525851	      0.01651186	      0.06550154	      0.04489616	      0.00621831	     -0.04527166	      0.12661134	      0.08674831	     -0.00704892	     -0.00958587	     -0.04168762	     -0.06217895	     -0.15238342	     -0.18154735	      0.00000079	     -0.32847694	      0.00000060	     -0.00000086	    109.52363392	    178.60470290	     19.24199542	    -12.00750128	      2.64287852	     42.98433214	   -109.52363392	   -178.60470290	    -19.24199542	      4.84716339	     -3.21257543	      3.05958135	     25.01569963	     21.33105576	     11.47181276	     -4.14072507	     -0.56209222	     10.03070264	    -25.01569963	    -21.33105576	    -11.47181276	     -0.25960844	      0.28462426	      0.08069896	   -772.34035505	   -689.23190938	    223.98850530	    -15.86127315	     17.39813823	     -1.13615571	    772.34035505	    689.23190938	   -223.98850530	    103.48510354	    -13.92667774	    313.95605476	      0.00000000	      0.00000000	      0.00000000	      0.00000000	      0.00000000	      0.00000000	      0.00000000	      0.00000000	      0.00000000	      0.00000000	      0.00000000	      0.00000000	    210.39325244	     34.81955852	      0.00000000	   1059.11335533
      0.16608570	      0.01294286	      0.01757814	     57.73136638	     -3.45984398	      0.00000000	    594.72513710	    383.98283529	      0.00000000	      0.00000000	      0.00000000	      0.00000000	      0.00000000	      0.00000000	      0.00000000	      0.00000000	      0.00000001	      0.00000000	      0.03119640	      0.02392346	      0.03504413	      0.03248742	      0.05961392	      0.05922234	      0.05627658	      0.05248945	      0.04772478	      0.04282572	      0.01525851	      0.01651186	      0.06550154	      0.04489616	      0.00615695	     -0.04530322	      0.12699125	      0.08697930	     -0.00688161	     -0.00955228	     -0.04174197	     -0.06230666	     -0.15259285	     -0.18182055	      0.00000079	     -0.32847694	      0.00000060	     -0.00000086	    109.83064339	    179.21038078	     19.59315536	    -12.16609153	      2.65276700	     43.09774193	   -109.83064339	   -179.21038078	    -19.59315536	      4.87088162	     -3.23127247	      3.08735524	     25.79790226	     21.72591930	     11.38172257	     -4.09226554	     -0.58365578	     10.34963711	    -25.79790226	    -21.72591930	    -11.38172257	     -0.27292810	      0.30636589	      0.07384808	   -774.00749363	   -689.80402486	    224.39183192	    -15.86185929	     17.44102721	     -1.07832507	    774.00749363	    689.80402486	   -224.39183192	    103.65111593	    -13.95759018	    314.60324608	      0.00000000	      0.00000000	      0.00000000	      0.00000000	      0.00000000	      0.00000000	      0.00000000	      0.00000000	      0.00000000	      0.00000000	      0.00000000	      0.00000000	    211.09955600	     35.59622085	      0.00000000	   1060.78691882
      0.16628713	      0.01295505	      0.01761698	     57.83989006	     -3.51759561	      0.00000000	    596.81746523	    385.15021608	      0.00000000	      0.00000000	      0.00000000	      0.00000000	      0.00000000	      0.00000000	      0.00000000	      0.00000000	      0.00000001	      0.00000000	      0.03119446	      0.02392265	      0.03505595	      0.03249435	      0.05962396	      0.05922437	      0.05627344	      0.05248225	      0.04771296	      0.04281141	      0.01525851	      0.01651186	      0.06550154	      0.04489616	      0.00609426	     -0.04533554	      0.12737133	      0.08721116	     -0.00671435	     -0.00951832	     -0.04179545	     -0.06243521	     -0.15280286	     -0.18209389	      0.00000079	     -0.32847694	      0.00000060	     -0.00000086	    110.65888281	    178.96349593	     20.18096515	    -12.40434936	      2.68082713	     43.43887705	   -110.65888281	   -178.96349593	    -20.18096515	      4.88146056	     -3.27391869	      3.07109923	     25.48371814	     21.40838169	     11.27681773	     -4.05886625	     -0.57296449	     10.21978434	    -25.48371814	    -21.40838169	    -11.27681773	     -0.26655780	      0.29786407	      0.07721120	   -775.68165569	   -690.28294430	    224.64155263	    -15.85559407	     17.47925474	     -1.02349134	    775.68165569	    690.28294430	   -224.64155263	    103.75079215	    -13.98705813	    315.25429909	      0.00000000	      0.00000000	      0.00000000	      0.00000000	      0.00000000	      0.00000000	      0.00000000	      0.00000000	      0.00000000	      0.00000000	      0.00000000	      0.00000000	    211.37784315	     35.14121960	      0.00000000	   1062.37300480
      0.16687104	      0.01298996	      0.01772971	     58.15453815	     -3.55884556	      0.00000000	    602.73825929	    388.17711066	      0.00000000	      0.00000000	      0.00000000	      0.00000000	      0.00000000	      0.00000000	      0.00000000	      0.00000000	      0.00000001	      0.00000000	      0.03118877	      0.02392032	      0.03509012	      0.03251446	      0.05965306	      0.05923037	      0.05626462	      0.05246114	      0.04767851	      0.04276989	      0.01525851	      0.01651186	      0.06550154	      0.04489616	      0.00591079	     -0.04542869	      0.12847028	      0.08788395	     -0.00622947	     -0.00941784	     -0.04194563	     -0.06281231	     -0.15341456	     -0.18288724	      0.00000079	     -0.32847694	      0.00000060	     -0.00000086	    111.54816872	    179.57731675	     20.85163451	    -12.69645731	      2.70231675	     43.77943760	   -111.54816872	   -179.57731675	    -20.85163451	      4.91486668	     -3.31388841	      3.11600277	     25.48101604	     20.90964124	     11.05893585	     -3.98244500	     -0.57106272	     10.21767573	    -25.48101604	    -20.90964124	    -11.05893585	     -0.26034983	      0.29914421	      0.07232353	   -781.87891158	   -689.26419747	    226.09720955	    -15.82777196	     17.62939348	     -0.97109235	    781.87891158	    689.26419747	   -226.09720955	    104.30934427	    -14.09846872	    317.71810404	      0.00000000	      0.00000000	      0.00000000	      0.00000000	      0.00000000	      0.00000000	      0.00000000	      0.00000000	      0.00000000	      0.00000000	      0.00000000	      0.00000000	    212.42833450	     34.76773415	      0.00000000	   1066.55506865
